<svg width="40" height="40" xmlns="http://www.w3.org/2000/svg" xmlns:xlink="http://www.w3.org/1999/xlink">
    <defs>
        <circle id="a" cx="20" cy="20" r="20"/>
    </defs>
    <g fill="none" fill-rule="evenodd">
        <mask id="b" fill="#fff">
            <use xlink:href="#a"/>
        </mask>
        <use fill="#FCC8F0" xlink:href="#a"/>
        <g mask="url(#b)">
            <g transform="translate(13.387 7.198)" fill-rule="nonzero">
                <path fill="#F3AE35" d="M1.252 3.676L1.17 3.04l.657-.853L3.4 1.408l2.137-.37 1.954.205.958.493.35.621-.118.733-.804-.542-1.052-.19h-1.15l-1.455.19-1.019.286-.813.414-.694.62H1.41z"/>
                <path d="M5.536 1.038l1.954.205.958.493.35.621-.118.733-.804-.542-1.052-.19h-1.15l-1.455.19-.02.006a.25.25 0 00-.035-.101c-.249-.418-.249-.842 0-1.272l-.055.103 1.427-.246z" fill="#FFF"/>
                <ellipse fill="#FFE453" transform="rotate(-8 5.161 4.22)" cx="5.161" cy="4.22" rx="3.874" ry="1.897"/>
                <path d="M2.667 3.09c-.275.592-.367 1.057-.275 1.395.138.507 1 1.145 3.623 1.351 1.749.137.854.23-2.684.279l-1.217-.483-.693-.603-.122-.644.301-.613 1.067-.682z" fill="#F8A915"/>
                <path d="M9.388 3.626c-.186-1.33-2.238-2-4.546-1.676C2.535 2.274.747 3.484.934 4.814m.783-.11c-.105-.745 1.306-1.7 3.235-1.971 1.93-.272 3.549.257 3.654 1.003" fill="#301D37"/>
                <path d="M9.23 2.361l.001.006.157 1.259c.187 1.33-1.6 2.54-3.908 2.864-2.307.324-4.36-.346-4.547-1.682L.776 3.549C.589 2.22 2.376 1.01 4.684.685 6.991.36 9.044 1.03 9.23 2.36zm-4.436-.893c-1.93.27-3.34 1.226-3.234 1.977l.157 1.259c.105.745 1.724 1.274 3.653 1.003 1.93-.27 3.34-1.226 3.235-1.977l-.158-1.262c-.108-.744-1.726-1.271-3.653-1z" fill="#301D37"/>
            </g>
            <g transform="rotate(-9 77.886 -92.139)" fill-rule="nonzero">
                <path fill="#F3AE35" d="M1.585 5.179l-.092-.712.736-.954 1.76-.869 2.39-.413 2.188.229 1.072.55.392.695-.133.818-.9-.605-1.177-.213H6.534l-1.628.213-1.14.32-.91.463-.776.692h-.318z"/>
                <path d="M6.329 2.146l2.18.237 1.067.57.39.718-.132.846-.896-.626-1.173-.22H6.483l-1.622.22-.023.007a.297.297 0 00-.039-.117c-.277-.483-.277-.974 0-1.47l-.06.12 1.59-.285z" fill="#FFF"/>
                <ellipse fill="#FFE453" transform="rotate(-8 6.037 5.406)" cx="6.037" cy="5.406" rx="4.348" ry="2.129"/>
                <path d="M7.88 3.387c2.187 1.4 1.544 2.662-1.929 3.786-.402.107-.962.214-1.679.322l2.703.096 1.783-.704 1.377-1.043.325-.856-.253-.546-.718-.66-1.609-.395z" fill="#FFF"/>
                <path d="M3.296 4.11c-1.069 1.793-.32 2.895 2.248 3.305L4.033 7.5l-1.35-.541-.77-.676-.134-.72.333-.688 1.184-.765z" fill="#F8A915"/>
                <path d="M10.795 4.732c-.212-1.515-2.532-2.273-5.137-1.907-2.604.366-4.625 1.734-4.413 3.25m.94-.133C2.07 5.128 3.639 4.067 5.79 3.764c2.151-.302 3.952.286 4.066 1.1" fill="#301D37"/>
                <path d="M10.8 4.758c.212 1.522-1.807 2.9-4.41 3.268-2.603.369-4.923-.395-5.134-1.91L1.052 4.84c-.212-1.523 1.808-2.9 4.41-3.27 2.6-.367 4.918.394 5.135 1.915l.203 1.274zm-1.14-1.13l-.002-.008c-.115-.823-1.913-1.415-4.063-1.11-2.15.304-3.718 1.373-3.605 2.188l.204 1.279c.115.822 1.913 1.415 4.063 1.11 2.15-.305 3.718-1.374 3.605-2.19L9.659 3.63z" fill="#301D37"/>
            </g>
            <g transform="rotate(15 -42.91 71.34)" fill-rule="nonzero">
                <path fill="#F1A922" d="M1.879 6.147l-.116-.926.927-1.24 2.215-1.13 3.012-.537 2.754.298 1.35.716.493.902-.167 1.064-1.133-.787-1.483-.277h-1.62l-2.05.277-1.436.416-1.146.602-.978.9h-.4z"/>
                <path d="M7.837 2.303l2.739.284 1.342.684.49.862-.165 1.016-1.127-.752-1.474-.264H8.03l-2.039.264-.054.015c.38-.297.454-.465.223-.503-.61-.101-.827-.524-.648-1.27l-.014.065 2.338-.401z" fill="#FFF"/>
                <ellipse fill="#E99C0B" transform="rotate(-8 7.425 6.556)" cx="7.425" cy="6.556" rx="5.481" ry="2.668"/>
                <path d="M7.802 5.01c.52.052 1.261.16 1.501.108.26-.07 1.697-.462 2.232-.487.506-.023.889.303 1.148.98l-.694.716-.958-.014-.53.27-.534.141-.723.193-1.114.64-1.601.576-1 .274-.863.06-1.205.084c-.486-.078-.769-.228-.848-.45-.474-1.328 2.737-3.334 5.189-3.09z" fill="#D47B00"/>
                <path d="M13.322 5.732c.256 1.81-2.233 3.485-5.458 3.936-3.225.45-6.081-.477-6.337-2.287C1.271 5.57 3.76 3.895 6.985 3.445c3.225-.45 6.081.477 6.337 2.287zM2.466 7.248c.157 1.108 2.495 1.867 5.267 1.48 2.77-.387 4.807-1.756 4.65-2.863-.157-1.109-2.495-1.868-5.266-1.48-2.771.386-4.807 1.756-4.65 2.863z" fill="#301D37"/>
                <path d="M13.342 5.643l.005.03c.257 1.825-2.244 3.517-5.483 3.972-3.23.453-6.094-.477-6.365-2.292l-.285-1.385-.005-.03C.952 4.112 3.453 2.421 6.693 1.966c3.23-.454 6.093.477 6.364 2.291l.285 1.386zm-1.217-1.208l-.005-.03c-.158-1.124-2.51-1.891-5.296-1.5-2.775.39-4.818 1.766-4.678 2.888l.285 1.382.005.03c.158 1.124 2.51 1.892 5.296 1.5 2.775-.39 4.818-1.766 4.678-2.887l-.285-1.383z" fill="#301D37"/>
            </g>
            <path fill="#FFF" fill-rule="nonzero" d="M14.855 22.221l-.53 1.363-.306 1.495.148 2.104.688 1.974.702 1.1 1.368 1.681.8.508 4.201.33h2.009l2.792-.62 2.087-1.316 1.29-2.066.526-1.585v-1.105l-.527-.735-.994-.27-.524-1.228-1.295-1.073-1.971-.353-1.384.142-.857-.847-1.152-.357-1.964.199-2.236.66z"/>
            <path d="M29.874 26.018c-.472 1.141-.933 1.654-1.383 1.54-.45-.114-.33-.76.36-1.94l.736-.283.287.683zM22.564 25.979c.054.373.296.466.727.279 1.008-.437 2.115-1.705 1.99-3.304l-1.056-.53-.066.952-1.595 2.603z" fill="#DBD7DA" fill-rule="nonzero"/>
            <path d="M15.23 29.962c3.42.926 6.212 1.3 8.38 1.125 3.25-.263 4.333-.745 6.666-2.585l-1.167 1.784-1.144 1.336-2.06.832-3.152.322-4.53-.322-1.298-.298-1.695-2.194z" fill="#D7D9D7" fill-rule="nonzero"/>
            <path fill="#FFEE8A" fill-rule="nonzero" d="M16.575 32.156l-1.018-1.898-1.074-2.012-.464-2.13.237-2.088.599-1.807H-.955L2.245 33.68l1.61-.71 2.529-.494 2.715-.32h4.214z"/>
            <path d="M15.11 29.749c-4.89-.4-9.455-.144-13.696.77-4.24.916-3.964 1.969.832 3.16l2.065-.697 5.714-.826h6.9l-1.816-2.407z" fill="#F4C257" fill-rule="nonzero"/>
            <path d="M-.304 22.221l7.155-.248 8.004.248-.398 1.125c-6.086-.136-10.917-.057-14.495.238l-.266-1.363z" fill="#FFF" fill-rule="nonzero"/>
            <path d="M-1.708 22.924c4.692-.265 8.198-.38 10.512-.346 1.184.018 2.237.044 3.488.084l2.156.069c.75.022 1.34.034 1.909.036 1.015.004 2.044-.15 3.095-.415.471-.118 1.43-.408 1.336-.383.652-.173 1.705-.011 2.445.655.108.098.156.146.222.232.167.22.247.47.206.785-.063.481-.404 1.07-1.114 1.77a.553.553 0 00.777.788c1.618-1.594 1.8-2.977 1.011-4.013a2.452 2.452 0 00-.36-.384c-1.048-.944-2.486-1.164-3.472-.902.068-.018-.882.268-1.321.38-.968.243-1.91.384-2.82.38a73.155 73.155 0 01-1.881-.035l-2.154-.07c-1.256-.04-2.316-.066-3.507-.084-2.346-.034-5.874.082-10.59.348a.553.553 0 00.062 1.105z" fill="#301D37" fill-rule="nonzero"/>
            <path d="M14.349 21.996c-1.723 3.872-.92 7.432 2.364 10.56a.553.553 0 00.763-.8c-2.953-2.814-3.644-5.877-2.116-9.31a.553.553 0 00-1.011-.45z" fill="#301D37" fill-rule="nonzero"/>
            <path d="M3.376 33.766c2.737-.798 5.622-1.197 8.655-1.197 1.929 0 3.378.103 5.683.353l.939.102c.354.038.646.068.928.094 1.137.109 2.077.163 3.055.163 2.079 0 3.638-.258 4.96-.929 1.588-.805 2.73-2.187 3.425-4.261.526-1.571-.308-3.565-1.636-3.565a.553.553 0 000 1.107c.14 0 .363.205.523.587a2.22 2.22 0 01.063 1.52c-1.118 3.338-3.28 4.434-7.335 4.434-.939 0-1.845-.052-2.95-.157a78.939 78.939 0 01-.915-.094c-.205-.022-.931-.1-.938-.102-2.34-.253-3.826-.359-5.802-.359-3.137 0-6.125.414-8.965 1.241a.553.553 0 00.31 1.063z" fill="#301D37" fill-rule="nonzero"/>
            <path d="M24.025 23.113c1.529-.251 2.602-.146 3.218.269.46.31.812.669 1.047 1.036.176.277.266.533.266.661 0 .546-.18 1.16-.55 1.565a.553.553 0 00.813.75c.588-.64.844-1.516.844-2.315 0-.79-.685-1.864-1.802-2.616-.898-.604-2.236-.735-4.016-.442a.553.553 0 00.18 1.092z" fill="#301D37" fill-rule="nonzero"/>
            <path d="M12.723 13.832c-.374 1.822-1.271 2.591-1.66 2.846.389.255 1.286 1.024 1.66 2.846.375-1.822 1.272-2.59 1.66-2.846-.388-.255-1.285-1.024-1.66-2.846zM26.957 4.269c-.41 1.995-1.393 2.837-1.819 3.117.426.28 1.409 1.121 1.818 3.117.41-1.996 1.393-2.838 1.819-3.117-.426-.28-1.409-1.122-1.818-3.117z" fill="#FFF"/>
        </g>
    </g>
</svg>
